<?xml version="1.0" encoding="UTF-8"?> <svg xmlns="http://www.w3.org/2000/svg" xmlns:xlink="http://www.w3.org/1999/xlink" width="200" height="50" viewBox="0 0 200 50"><defs><clipPath id="b"><rect width="200" height="50"></rect></clipPath></defs><g id="a" clip-path="url(#b)"><g transform="translate(46.662 0)"><g transform="translate(39.253 0)"><path d="M319.24,7.983h0A7.983,7.983,0,0,1,327.223,0h0A7.983,7.983,0,0,1,319.24,7.983Z" transform="translate(-306.682 0)" fill="#fff"></path><path d="M276.32,58.5h0a6.511,6.511,0,0,1,6.511-6.511h0A6.511,6.511,0,0,1,276.32,58.5Z" transform="translate(-270.727 -43.552)" fill="#fff"></path><path d="M279.63,21.531h0a6.511,6.511,0,0,1,6.511-6.511h0A6.511,6.511,0,0,1,279.63,21.531Z" transform="translate(-273.5 -12.582)" fill="#fff"></path><path d="M241.86,25.641h0a6.511,6.511,0,0,1,6.511-6.511h0A6.511,6.511,0,0,1,241.86,25.641Z" transform="translate(-241.86 -16.025)" fill="#fff"></path><path d="M309.19,92.971h0A6.511,6.511,0,0,1,315.7,86.46h0A6.511,6.511,0,0,1,309.19,92.971Z" transform="translate(-298.263 -72.428)" fill="#fff"></path><path d="M313.3,55.191h0a6.511,6.511,0,0,1,6.511-6.511h0A6.511,6.511,0,0,1,313.3,55.191Z" transform="translate(-301.706 -40.779)" fill="#fff"></path><path d="M279.96,99.555h0a4.375,4.375,0,0,1,4.375-4.375h0A4.375,4.375,0,0,1,279.96,99.555Z" transform="translate(-273.777 -79.733)" fill="#fff"></path><path d="M247.13,98.725h0a4.375,4.375,0,0,1,4.375-4.375h0A4.375,4.375,0,0,1,247.13,98.725Z" transform="translate(-246.275 -79.037)" fill="#fff"></path><path d="M246.3,65.885h0a4.375,4.375,0,0,1,4.375-4.375h0a4.375,4.375,0,0,1-4.375,4.375Z" transform="translate(-245.579 -51.527)" fill="#fff"></path></g><g transform="translate(0 25.584)"><path d="M0,157.64v14.521H11.7v-3.142H3.57V157.64Z" transform="translate(0 -157.64)" fill="#fff"></path><path d="M96.783,169.6a9.661,9.661,0,0,0,.842-4.429V157.64h-3.57v7.531a4.99,4.99,0,0,1-.721,2.913,3.029,3.029,0,0,1-2.629,1.047,3.376,3.376,0,0,1-2.5-.883,4.289,4.289,0,0,1-.87-3.077V157.64H83.76v7.531a11.141,11.141,0,0,0,.617,3.968,4.69,4.69,0,0,0,2.1,2.421,8.58,8.58,0,0,0,4.229.872,9.822,9.822,0,0,0,3.77-.636,4.615,4.615,0,0,0,2.309-2.2Z" transform="translate(-70.166 -157.64)" fill="#fff"></path><path d="M205.291,172.161V157.64H201.7v8.809l-7.748-8.809h-3.09v14.521h3.57v-8.835l7.725,8.835Z" transform="translate(-159.884 -157.64)" fill="#fff"></path><path d="M316.642,157.64h-4.971l-6.649,6.149V157.64H301.45v14.521h3.572v-3.842l2.408-2.206,4.737,6.047h4.322l-6.563-8.347Z" transform="translate(-252.526 -157.64)" fill="#fff"></path><path d="M426.186,160.8V157.64H412.05v14.521h14.136v-3.142H415.621v-2.548h9.889v-3.165h-9.889v-2.5Z" transform="translate(-345.176 -157.64)" fill="#fff"></path><path d="M529.244,172.169h4.01l-3.382-5.575-.128-.253.273-.078a3.8,3.8,0,0,0,2.238-1.582,4.648,4.648,0,0,0,.753-2.548,5.136,5.136,0,0,0-.476-2.16,3.928,3.928,0,0,0-1.482-1.672,4.613,4.613,0,0,0-2.525-.651h-10.2v14.521h3.57v-5.69h3.913l3.433,5.69ZM521.9,160.813h6.625a.857.857,0,0,1,.677.3,1.131,1.131,0,0,1,.237.75v.406a1.134,1.134,0,0,1-.235.75.853.853,0,0,1-.677.3H521.9v-2.5Z" transform="translate(-434.207 -157.648)" fill="#fff"></path><g transform="translate(0 19.833)"><path d="M2.311,280.132a2.972,2.972,0,0,1,1.98.584,2.3,2.3,0,0,1,0,3.275,2.97,2.97,0,0,1-1.978.584H0v-4.439l2.311-.007Zm2.108,2.219a1.59,1.59,0,0,0-.56-1.328,2.45,2.45,0,0,0-1.56-.446H.549v3.549H2.3a2.454,2.454,0,0,0,1.563-.446,1.59,1.59,0,0,0,.56-1.328l0,0Z" transform="translate(0 -280.083)" fill="#fff"></path><path d="M47.878,284.619H43.1V280.18h4.627v.451H43.652v1.553h3.58v.424h-3.58v1.56H47.88v.45Z" transform="translate(-36.105 -280.125)" fill="#fff"></path><path d="M84.932,281.831a5.658,5.658,0,0,1,1.839.372.944.944,0,0,1,.591.919,1.069,1.069,0,0,1-.625.983,3.936,3.936,0,0,1-1.847.344,7.893,7.893,0,0,1-2.61-.467v-.508a5.374,5.374,0,0,0,1.167.362,6.8,6.8,0,0,0,1.414.154c1.293,0,1.941-.276,1.938-.823a.637.637,0,0,0-.477-.61,5.652,5.652,0,0,0-1.55-.256c-.229-.016-.417-.031-.566-.044s-.316-.034-.5-.065a3.38,3.38,0,0,1-.461-.1,3.2,3.2,0,0,1-.372-.143.854.854,0,0,1-.3-.2,1.027,1.027,0,0,1-.174-.282.969.969,0,0,1-.068-.378.886.886,0,0,1,.331-.7,1.92,1.92,0,0,1,.846-.393,5.558,5.558,0,0,1,1.216-.115,7.441,7.441,0,0,1,1.355.12,4.937,4.937,0,0,1,.948.253v.508a4.981,4.981,0,0,0-1-.3,6.17,6.17,0,0,0-1.276-.13,3.985,3.985,0,0,0-1.337.185c-.338.123-.508.31-.508.56a.57.57,0,0,0,.034.195.33.33,0,0,0,.12.154c.058.042.117.083.174.117a.962.962,0,0,0,.256.092c.114.028.211.05.291.065s.2.031.355.047l.381.037c.1.01.239.018.424.031l-.013.018Z" transform="translate(-68.926 -279.865)" fill="#fff"></path><path d="M126.088,284.619h-.6l-.532-1.009h-3.136l-.536,1.009h-.6l2.34-4.439h.734Zm-1.344-1.427-1.344-2.542h-.034l-1.344,2.542h2.72Z" transform="translate(-101.094 -280.125)" fill="#fff"></path><path d="M169.473,283.713c.01.068.018.154.031.26s.021.18.028.222a1.379,1.379,0,0,0,.034.154,1.2,1.2,0,0,0,.047.146.569.569,0,0,0,.065.112h-.583a.621.621,0,0,1-.065-.117.878.878,0,0,1-.047-.164c-.013-.065-.021-.123-.031-.174s-.018-.123-.028-.222-.018-.177-.028-.232a1.009,1.009,0,0,0-.338-.706,1.761,1.761,0,0,0-.959-.185h-2.29v1.8h-.55V280.17h2.77a2.777,2.777,0,0,1,1.485.325,1.054,1.054,0,0,1,.5.948,1.147,1.147,0,0,1-.888,1.133v.031a.9.9,0,0,1,.594.325,1.85,1.85,0,0,1,.25.781l0,0Zm-1.941-1.31a2.018,2.018,0,0,0,1.047-.232.753.753,0,0,0,.381-.69c0-.576-.477-.863-1.427-.86h-2.225V282.4h2.225v0Z" transform="translate(-138.02 -280.116)" fill="#fff"></path><path d="M211.673,283.713c.01.068.018.154.031.26s.021.18.028.222a1.379,1.379,0,0,0,.034.154,1.2,1.2,0,0,0,.047.146.568.568,0,0,0,.065.112h-.583a.623.623,0,0,1-.065-.117.88.88,0,0,1-.047-.164c-.013-.065-.021-.123-.031-.174s-.018-.123-.028-.222-.018-.177-.028-.232a1.009,1.009,0,0,0-.338-.706,1.761,1.761,0,0,0-.959-.185h-2.29v1.8h-.55V280.17h2.77a2.777,2.777,0,0,1,1.485.325,1.054,1.054,0,0,1,.5.948,1.147,1.147,0,0,1-.888,1.133v.031a.9.9,0,0,1,.594.325,1.827,1.827,0,0,1,.25.781l0,0Zm-1.941-1.31a2.018,2.018,0,0,0,1.047-.232.753.753,0,0,0,.381-.69c0-.576-.477-.863-1.427-.86h-2.225V282.4h2.225v0Z" transform="translate(-173.371 -280.116)" fill="#fff"></path><path d="M252.03,280.453a2.371,2.371,0,0,1,0,3.343,3.5,3.5,0,0,1-3.957,0,2.363,2.363,0,0,1,0-3.343,3.5,3.5,0,0,1,3.957,0Zm-1.978,3.512a2.344,2.344,0,0,0,1.56-.474,1.951,1.951,0,0,0,0-2.743,2.814,2.814,0,0,0-3.126,0,1.943,1.943,0,0,0,0,2.736,2.357,2.357,0,0,0,1.566.474v.006Z" transform="translate(-207.231 -279.84)" fill="#fff"></path><path d="M293.26,280.18v3.989h3.975v.45H292.71V280.18Z" transform="translate(-245.204 -280.125)" fill="#fff"></path><path d="M332.07,280.18v3.989h3.975v.45H331.52V280.18Z" transform="translate(-277.716 -280.125)" fill="#fff"></path><path d="M372.288,284.619h-.6l-.532-1.009h-3.136l-.536,1.009h-.6l2.34-4.439h.734Zm-1.344-1.427-1.344-2.542h-.034l-1.344,2.542h2.72Z" transform="translate(-307.337 -280.125)" fill="#fff"></path><path d="M413.273,280.132a2.972,2.972,0,0,1,1.98.584,2.3,2.3,0,0,1,0,3.275,2.971,2.971,0,0,1-1.978.584H410.96v-4.439l2.311-.007Zm2.108,2.219a1.59,1.59,0,0,0-.56-1.328,2.45,2.45,0,0,0-1.56-.446H411.51v3.549h1.751a2.454,2.454,0,0,0,1.563-.446,1.59,1.59,0,0,0,.56-1.328l0,0Z" transform="translate(-344.263 -280.083)" fill="#fff"></path><path d="M456.93,280.453a2.371,2.371,0,0,1,0,3.343,3.5,3.5,0,0,1-3.957,0,2.363,2.363,0,0,1,0-3.343,3.5,3.5,0,0,1,3.957,0Zm-1.978,3.512a2.344,2.344,0,0,0,1.56-.474,1.951,1.951,0,0,0,0-2.743,2.814,2.814,0,0,0-3.126,0,1.944,1.944,0,0,0,0,2.736,2.357,2.357,0,0,0,1.566.474v.006Z" transform="translate(-378.877 -279.84)" fill="#fff"></path><path d="M502.313,283.713c.01.068.018.154.031.26s.021.18.028.222a1.376,1.376,0,0,0,.034.154,1.212,1.212,0,0,0,.047.146.57.57,0,0,0,.065.112h-.583a.621.621,0,0,1-.065-.117.88.88,0,0,1-.047-.164c-.013-.065-.021-.123-.031-.174s-.018-.123-.028-.222-.018-.177-.028-.232a1.009,1.009,0,0,0-.338-.706,1.761,1.761,0,0,0-.959-.185h-2.29v1.8h-.55V280.17h2.77a2.777,2.777,0,0,1,1.485.325,1.054,1.054,0,0,1,.5.948,1.147,1.147,0,0,1-.888,1.133v.031a.9.9,0,0,1,.594.325,1.828,1.828,0,0,1,.25.781l0,0Zm-1.941-1.31a2.018,2.018,0,0,0,1.047-.232.756.756,0,0,0,.381-.69c0-.576-.477-.863-1.427-.86h-2.225V282.4h2.225v0Z" transform="translate(-416.842 -280.116)" fill="#fff"></path><path d="M544.588,284.619H539.81V280.18h4.627v.451h-4.075v1.553h3.58v.424h-3.58v1.56h4.228v.45Z" transform="translate(-452.201 -280.125)" fill="#fff"></path><path d="M581.632,281.831a5.658,5.658,0,0,1,1.839.372.944.944,0,0,1,.591.919,1.069,1.069,0,0,1-.625.983,3.936,3.936,0,0,1-1.847.344,7.893,7.893,0,0,1-2.61-.467v-.508a5.374,5.374,0,0,0,1.167.362,6.8,6.8,0,0,0,1.414.154c1.294,0,1.941-.276,1.938-.823a.636.636,0,0,0-.477-.61,5.652,5.652,0,0,0-1.55-.256c-.229-.016-.417-.031-.566-.044s-.317-.034-.5-.065a3.38,3.38,0,0,1-.461-.1,3.206,3.206,0,0,1-.372-.143.876.876,0,0,1-.3-.2,1.025,1.025,0,0,1-.174-.282.969.969,0,0,1-.068-.378.886.886,0,0,1,.331-.7,1.938,1.938,0,0,1,.846-.393,5.558,5.558,0,0,1,1.216-.115,7.44,7.44,0,0,1,1.355.12,4.938,4.938,0,0,1,.948.253v.508a4.979,4.979,0,0,0-1-.3,6.171,6.171,0,0,0-1.276-.13,3.985,3.985,0,0,0-1.337.185c-.338.123-.508.31-.508.56a.571.571,0,0,0,.034.195.33.33,0,0,0,.12.154c.058.042.117.083.174.117a.962.962,0,0,0,.256.092c.114.028.211.05.29.065s.2.031.355.047l.381.037c.1.01.239.018.424.031l-.013.018Z" transform="translate(-485.014 -279.865)" fill="#fff"></path></g></g><path d="M629.46,159.648a1.861,1.861,0,0,1,.617-1.459,2.367,2.367,0,0,1,1.634-.549,2.4,2.4,0,0,1,1.644.545,2.035,2.035,0,0,1,0,2.928,2.722,2.722,0,0,1-3.273,0,1.857,1.857,0,0,1-.612-1.459h-.01Zm3.923,0a1.361,1.361,0,0,0-.472-1.112,2.049,2.049,0,0,0-2.408,0,1.544,1.544,0,0,0,0,2.212,1.8,1.8,0,0,0,1.2.391,1.833,1.833,0,0,0,1.211-.391,1.356,1.356,0,0,0,.474-1.1l-.01,0Zm-2.54-1h1.086a1.063,1.063,0,0,1,.626.162.516.516,0,0,1,.229.446.561.561,0,0,1-.49.568l.49.833H632.1l-.368-.7h-.248v.7h-.635l0-2.008Zm.635.414v.454h.36c.188,0,.284-.076.284-.234s-.094-.221-.284-.221Z" transform="translate(-527.302 -132.056)" fill="#fff"></path></g></g></svg> 